<?xml version="1.0" encoding="UTF-8"?>
<svg xmlns="http://www.w3.org/2000/svg" xmlns:xlink="http://www.w3.org/1999/xlink" width="40px" height="40px" viewBox="0 0 40 40" version="1.1">
  <path style=" stroke:none;fill-rule:nonzero;fill:rgb(98.039216%,74.117647%,18.431373%);fill-opacity:1;" d="M 60.074219 20.023438 L 20.023438 60.074219 L -20.027344 20.027344 L 20.023438 -20.023438 Z M 60.074219 20.023438 "/>
  <path style=" stroke:none;fill-rule:nonzero;fill:rgb(99.607843%,50.196078%,9.803922%);fill-opacity:1;" d="M 60.074219 19.980469 L 26.699219 53.355469 L -13.351562 13.304688 L 20.023438 -20.070312 Z M 60.074219 19.980469 "/>
  <path style=" stroke:none;fill-rule:nonzero;fill:rgb(92.156863%,85.882353%,69.803922%);fill-opacity:1;" d="M 60.074219 19.933594 L 33.375 46.636719 L -6.675781 6.585938 L 20.023438 -20.113281 Z M 60.074219 19.933594 "/>
  <path style=" stroke:none;fill-rule:nonzero;fill:rgb(15.686275%,15.686275%,15.686275%);fill-opacity:1;" d="M 60.074219 19.890625 L 40.050781 39.914062 L 0 -0.132812 L 20.023438 -20.160156 Z M 60.074219 19.890625 "/>
  <path style=" stroke:none;fill-rule:nonzero;fill:rgb(72.156863%,73.333333%,14.901961%);fill-opacity:1;" d="M 60.074219 19.84375 L 46.726562 33.195312 L 6.675781 -6.855469 L 20.023438 -20.203125 Z M 60.074219 19.84375 "/>
  <path style=" stroke:none;fill-rule:nonzero;fill:rgb(55.686275%,75.294118%,48.627451%);fill-opacity:1;" d="M 60.074219 19.800781 L 53.402344 26.476562 L 13.351562 -13.574219 L 20.023438 -20.25 Z M 60.074219 19.800781 "/>
</svg>
