<?xml version="1.0" encoding="utf-8"?>
<svg viewBox="0 0 500 500" xmlns="http://www.w3.org/2000/svg">
  <rect y="-110.383801" width="708.003461" height="707.999989" style="stroke: rgb(0, 0, 0); stroke-width: 0px; fill: rgb(131, 165, 152);" x="907.607285" transform="matrix(-0.707107, 0.707107, -0.707107, -0.707107, 1314.670532, -469.511719)"/>
  <rect y="-110.383805" width="590.001837" height="707.999994" style="stroke: rgb(0, 0, 0); stroke-width: 0px; fill: rgb(211, 134, 155);" x="756.338194" transform="matrix(-0.707107, 0.707107, -0.707107, -0.707107, 1207.706909, -363.110199)"/>
  <rect y="-110.383817" width="472.00125" height="708.000049" style="stroke: rgb(0, 0, 0); fill: rgb(235, 219, 178); stroke-width: 0px;" x="605.070201" transform="matrix(-0.707107, 0.707107, -0.707107, -0.707107, 1100.744141, -256.708954)"/>
  <rect y="-110.383939" width="354.00109" height="708.000837" style="stroke: rgb(0, 0, 0); fill: rgb(40, 40, 40); stroke-width: 0px;" x="453.80291" transform="matrix(-0.707107, 0.707107, -0.707107, -0.707107, 993.781982, -150.308197)"/>
  <rect y="-110.383819" width="236.000304" height="708.000021" style="stroke: rgb(0, 0, 0); paint-order: fill; fill: rgb(184, 187, 38); stroke-width: 0px;" x="302.534673" transform="matrix(-0.707107, 0.707107, -0.707107, -0.707107, 886.818848, -43.906765)"/>
  <rect y="-110.383817" width="118.000343" height="708.000028" style="stroke: rgb(0, 0, 0); fill: rgb(142, 192, 124); stroke-width: 0px;" x="151.267581" transform="matrix(-0.707107, 0.707107, -0.707107, -0.707107, 779.856995, 62.49382)"/>
</svg>
